<svg width="147.12" height="29.01" viewBox="0 0 147.12 29.01" xmlns="http://www.w3.org/2000/svg"><g transform="translate(-27.163,-103.577)"><g transform="translate(0,70.73)"><path d="M 27.163121,55.112311 V 32.847622 h 13.708687 v 3.37151 h -10.01911 v 5.916046 h 8.842263 v 3.307897 h -8.842263 v 6.297726 h 10.114531 v 3.37151 z m 22.964441,0 -6.583987,-15.90335 h 3.657771 l 4.707391,12.022933 4.675585,-12.022933 h 3.689577 l -6.55218,15.90335 z m 19.020403,0.381681 c -1.547926,0 -2.926216,-0.349874 -4.134871,-1.049621 -1.18745,-0.720952 -2.131049,-1.70696 -2.830796,-2.958023 -0.678543,-1.251064 -1.017815,-2.692968 -1.017815,-4.325712 0,-1.632743 0.349874,-3.074647 1.049621,-4.325711 0.699747,-1.251063 1.653948,-2.226469 2.862603,-2.926216 1.208655,-0.720952 2.60815,-1.081428 4.198485,-1.081428 1.420699,0 2.703569,0.371078 3.84861,1.113235 1.145041,0.720951 2.046231,1.770572 2.70357,3.148863 0.678543,1.37829 1.017814,3.021636 1.017814,4.930038 H 64.85406 c 0.08482,1.335881 0.572521,2.385503 1.463109,3.148864 0.890587,0.763361 1.940208,1.145041 3.148863,1.145041 0.975405,0 1.781175,-0.222647 2.417309,-0.667941 0.636134,-0.445294 1.134439,-1.007212 1.494915,-1.685755 l 3.148863,1.335881 c -0.678543,1.293473 -1.632744,2.321889 -2.862603,3.08525 -1.208655,0.742157 -2.714172,1.113235 -4.516551,1.113235 z m 0.03181,-13.613268 c -0.593725,0 -1.198053,0.127227 -1.812982,0.381681 -0.593725,0.233249 -1.113235,0.604327 -1.558529,1.113234 -0.424089,0.508907 -0.678543,1.145041 -0.76336,1.908402 h 7.951675 C 72.890554,44.139 72.455862,43.290821 71.692501,42.739505 70.92914,42.166984 70.091564,41.880724 69.179772,41.880724 Z m 10.400809,13.231587 v -15.90335 h 3.56235 v 2.89441 c 0.636134,-1.017814 1.452506,-1.75997 2.449116,-2.226469 1.017814,-0.487703 2.078037,-0.731554 3.18067,-0.731554 v 3.403317 c -0.975405,0 -1.8978,0.137829 -2.767183,0.413487 -0.848179,0.254453 -1.537324,0.689145 -2.067436,1.304075 -0.530111,0.593725 -0.795167,1.367688 -0.795167,2.321889 v 8.524195 z m 14.058589,6.743021 c -0.508907,0 -1.081428,-0.09542 -1.717562,-0.286261 -0.614929,-0.19084 -1.198052,-0.434691 -1.749368,-0.731554 l 1.304075,-2.894409 c 0.402885,0.19084 0.76336,0.339271 1.081427,0.445293 0.339272,0.127227 0.625532,0.190841 0.858781,0.190841 0.99661,0 1.70696,-0.51951 2.131049,-1.558529 l 0.858781,-2.035628 -7.061087,-15.776124 h 3.880417 L 98.060304,50.97744 102.7995,39.208961 h 3.88042 l -7.379154,17.589105 c -0.445294,1.039019 -0.90119,1.929607 -1.367688,2.671763 -0.445294,0.763361 -1.007212,1.346484 -1.685755,1.749369 -0.678543,0.424089 -1.547927,0.636134 -2.60815,0.636134 z" fill="#808080"/><path d="m 108.96999,61.473651 v -22.26469 h 3.33971 l 0.19084,2.41731 c 0.53011,-0.890588 1.21926,-1.579733 2.06743,-2.067436 0.86939,-0.487703 1.866,-0.731554 2.98983,-0.731554 1.44191,0 2.69297,0.349874 3.75319,1.049621 1.08143,0.678543 1.91901,1.643347 2.51273,2.89441 0.61493,1.251063 0.9224,2.714171 0.9224,4.389324 0,1.675153 -0.30747,3.138262 -0.9224,4.389325 -0.59372,1.251063 -1.4313,2.226469 -2.51273,2.926216 -1.06022,0.678543 -2.31128,1.017815 -3.75319,1.017815 -1.10263,0 -2.07804,-0.233249 -2.92621,-0.699748 -0.84818,-0.487703 -1.54793,-1.166245 -2.09925,-2.035628 v 8.715035 z m 7.69723,-9.223943 c 1.27227,0 2.32189,-0.4771 3.14886,-1.431301 0.82697,-0.954201 1.25106,-2.173458 1.27227,-3.657771 -0.0212,-1.484313 -0.44529,-2.692967 -1.27227,-3.625963 -0.80577,-0.954201 -1.84479,-1.431302 -3.11706,-1.431302 -1.22986,0 -2.23707,0.477101 -3.02163,1.431302 -0.76337,0.932996 -1.14505,2.14165 -1.14505,3.625963 0,1.484313 0.38168,2.70357 1.14505,3.657771 0.78456,0.954201 1.78117,1.431301 2.98983,1.431301 z m 16.25322,3.244284 c -1.9084,0 -3.39271,-0.424089 -4.45294,-1.272268 -1.03902,-0.848179 -1.55853,-2.046231 -1.55853,-3.594157 0,-1.653949 0.55132,-2.915615 1.65395,-3.784998 1.12384,-0.869383 2.68237,-1.304074 4.67559,-1.304074 h 4.03945 c -0.12723,-1.145041 -0.4559,-2.025027 -0.98601,-2.639956 -0.53011,-0.636134 -1.31468,-0.954201 -2.35369,-0.954201 -1.54793,0 -2.70357,0.657338 -3.46693,1.972015 l -3.11706,-1.145041 c 0.4877,-1.039019 1.25106,-1.950811 2.29008,-2.735376 1.06023,-0.80577 2.49153,-1.208655 4.29391,-1.208655 2.33249,0 4.07125,0.667941 5.21629,2.003822 1.16625,1.335881 1.73877,3.191272 1.71757,5.566173 l -0.0954,8.715035 h -3.27609 l -0.0954,-1.972015 c -0.44529,0.763361 -1.03902,1.346483 -1.78118,1.749368 -0.74215,0.402885 -1.64334,0.604328 -2.70357,0.604328 z m 0.44529,-2.98983 c 1.18745,0 2.14166,-0.38168 2.86261,-1.145041 0.74215,-0.784565 1.11323,-1.728164 1.11323,-2.830797 v -0.254453 h -2.95802 c -1.4207,0 -2.41731,0.201442 -2.98983,0.604327 -0.57252,0.402885 -0.85878,0.954201 -0.85878,1.653949 0,0.614929 0.24385,1.102632 0.73155,1.463108 0.50891,0.339271 1.20865,0.508907 2.09924,0.508907 z m 11.10055,2.608149 v -15.90335 h 3.56235 v 2.89441 c 0.63613,-1.017814 1.45251,-1.75997 2.44912,-2.226469 1.01781,-0.487703 2.07804,-0.731554 3.18067,-0.731554 v 3.403317 c -0.97541,0 -1.8978,0.137829 -2.76719,0.413487 -0.84817,0.254453 -1.53732,0.689145 -2.06743,1.304075 -0.53011,0.593725 -0.79517,1.367688 -0.79517,2.321889 v 8.524195 z m 17.87539,0.381681 c -1.67515,0 -2.95802,-0.413487 -3.84861,-1.240462 -0.86939,-0.848179 -1.30408,-2.056833 -1.30408,-3.625963 v -8.365162 h -2.63996 v -3.053444 h 2.63996 v -4.961845 h 3.53054 v 4.961845 h 4.29391 v 3.053444 h -4.29391 v 7.697221 c 0,1.505517 0.68915,2.258276 2.06744,2.258276 0.21205,0 0.43469,-0.04241 0.66794,-0.127227 0.25445,-0.08482 0.55132,-0.243852 0.89059,-0.477101 l 1.30407,2.70357 c -1.12383,0.784565 -2.22646,1.176848 -3.30789,1.176848 z" fill="#ffffff"/><circle fill="#ff0000" cy="58.293" cx="171.101" r="3.181"/></g></g></svg>
